<?xml version="1.0" standalone="no"?>
<!DOCTYPE svg PUBLIC "-//W3C//DTD SVG 20010904//EN"
 "http://www.w3.org/TR/2001/REC-SVG-20010904/DTD/svg10.dtd">
<svg version="1.0" xmlns="http://www.w3.org/2000/svg"
 width="512.000000pt" height="512.000000pt" viewBox="0 0 512.000000 512.000000"
 preserveAspectRatio="xMidYMid meet">
<metadata>
Created by potrace 1.14, written by Peter Selinger 2001-2017
</metadata>
<g transform="translate(0.000000,512.000000) scale(0.100000,-0.100000)"
fill="#000000" stroke="none">
<path d="M0 2560 l0 -2560 702 1 c396 1 679 6 648 10 -87 13 -94 14 -107 22
-12 8 -17 2 -14 -16 1 -5 -3 -6 -9 -2 -6 3 -8 11 -5 16 4 5 0 12 -9 15 -8 3
-17 13 -20 21 -5 13 -1 14 24 9 l31 -6 -30 26 c-35 29 -41 71 -13 94 47 40
109 56 230 59 19 1 31 5 27 11 -3 6 -3 10 0 10 13 0 65 -42 75 -59 8 -16 3
-18 -50 -20 -33 -1 -77 3 -98 10 -57 17 -149 -11 -163 -49 -9 -23 -7 -29 12
-45 13 -10 35 -21 51 -24 15 -3 28 -9 28 -14 0 -5 9 -9 19 -9 11 0 22 -4 25
-9 3 -4 31 -11 61 -14 31 -3 67 -12 79 -21 17 -10 52 -14 127 -14 91 0 101 1
79 13 -14 7 -45 16 -70 20 -109 18 -156 87 -77 114 27 10 34 8 59 -16 15 -15
28 -23 28 -18 0 4 8 1 18 -8 9 -8 31 -19 47 -23 17 -4 59 -20 95 -36 81 -36
191 -54 254 -40 25 5 48 6 51 2 2 -4 72 -8 155 -9 114 -1 150 1 150 11 0 9 3
9 12 0 16 -16 783 -17 793 -2 5 8 11 8 20 0 9 -8 19 -8 32 -1 10 6 37 15 59
21 23 5 58 21 78 35 36 24 56 26 56 4 0 -5 -27 -23 -60 -38 l-60 -29 165 -1
c120 -1 165 2 165 10 0 18 -50 60 -62 53 -6 -4 -8 -3 -5 3 4 5 39 20 79 32
120 37 130 42 117 58 -9 10 -14 11 -19 3 -7 -11 -81 -5 -127 10 -5 1 -12 2
-17 1 -6 -1 -20 0 -33 4 -20 5 -23 10 -17 28 4 12 7 30 6 40 0 9 4 17 10 17 6
0 8 3 5 6 -9 9 39 45 60 45 94 2 209 -5 213 -12 3 -4 26 -9 50 -11 25 -2 47
-6 50 -10 3 -3 28 -8 57 -10 28 -2 57 -9 64 -15 27 -21 77 -42 83 -35 4 3 4
-1 1 -10 -4 -9 0 -18 9 -21 9 -4 16 -13 16 -21 0 -8 5 -16 12 -18 9 -3 9 -6 0
-12 -7 -4 -12 -2 -12 4 0 6 -12 2 -26 -9 -15 -12 -34 -21 -43 -22 -12 0 -11
-2 4 -9 27 -12 43 -12 25 0 -9 6 -10 10 -3 10 7 0 16 -6 20 -13 11 -19 60 -30
65 -16 2 7 15 -9 28 -35 24 -44 27 -46 70 -46 26 0 52 6 59 12 10 10 12 10 7
1 -5 -9 74 -12 349 -13 l355 0 0 2560 0 2560 -380 0 c-369 0 -380 -1 -371 -19
6 -10 7 -21 4 -25 -12 -12 13 -6 32 8 11 7 31 17 45 21 22 7 23 6 11 -8 -7 -9
-17 -15 -21 -12 -4 3 -10 -2 -14 -10 -3 -9 -12 -12 -23 -8 -10 3 -15 2 -10 -2
4 -5 0 -16 -8 -25 -8 -9 -16 -27 -18 -41 -4 -26 -31 -38 -42 -18 -5 8 0 9 16
4 19 -5 21 -4 9 4 -10 7 -11 11 -3 11 7 0 12 3 11 8 -1 4 3 17 10 28 6 12 8
24 5 28 -3 3 -11 -4 -18 -17 -6 -12 -18 -21 -25 -19 -11 3 -11 0 1 -14 12 -16
12 -17 -4 -11 -11 4 -16 3 -12 -3 3 -6 1 -10 -5 -10 -6 0 -8 -4 -5 -10 12 -20
-6 -10 -30 16 -37 40 -32 53 15 49 26 -2 40 0 40 8 0 7 5 6 11 -3 9 -12 9 -11
4 5 -4 11 -9 29 -11 40 -4 19 -4 19 4 1 6 -15 11 -16 16 -7 5 7 3 18 -3 24 -9
9 -19 8 -39 -4 -23 -13 -30 -13 -40 -2 -11 11 -182 13 -952 13 -517 0 -940 -2
-940 -5 0 -3 14 -33 31 -66 17 -34 28 -63 26 -65 -2 -3 -21 27 -41 66 l-37 70
-1179 0 -1180 0 0 -2560z m4251 2541 c-11 -7 -9 -10 9 -16 21 -7 21 -8 6 -17
-20 -11 -59 -1 -50 14 4 6 -1 8 -14 4 -11 -4 -23 -3 -26 3 -3 5 7 8 24 7 17
-1 30 1 30 6 0 4 8 8 18 8 13 0 14 -2 3 -9z m64 -11 c-3 -5 -1 -10 4 -10 6 0
11 -4 11 -10 0 -5 -6 -10 -14 -10 -8 0 -13 8 -11 18 5 23 4 22 11 22 3 0 2 -4
-1 -10z m130 -74 c14 -19 28 -44 30 -57 3 -12 10 -26 16 -30 6 -4 9 -11 5 -17
-3 -6 16 -27 44 -47 70 -51 62 -53 -12 -3 -80 53 -90 62 -58 54 14 -3 19 -3
13 0 -7 3 -13 12 -13 19 0 7 -7 16 -16 19 -8 3 -12 10 -9 16 3 5 1 10 -5 10
-7 0 -10 6 -7 13 6 18 -12 49 -25 41 -7 -4 -6 -9 3 -14 18 -11 19 -70 2 -70
-20 0 -28 30 -12 41 11 6 11 11 1 21 -9 9 -12 9 -12 -2 0 -7 -3 -10 -7 -7 -5
6 24 47 33 47 2 0 15 -15 29 -34z m269 -3 c9 -18 14 -33 12 -33 -6 0 -36 55
-36 66 0 11 5 3 24 -33z m-339 -53 c-4 -6 7 -13 24 -16 17 -4 31 -10 31 -15 0
-8 -11 -6 -64 14 -26 9 -27 12 -10 18 26 10 26 10 19 -1z m-1550 -40 c6 -1 -3
-6 -20 -10 -27 -7 -28 -8 -5 -8 14 -1 57 3 95 7 65 8 74 6 125 -20 192 -95
400 -321 562 -609 108 -194 113 -205 86 -201 -4 0 -5 -6 -2 -14 4 -8 10 -12
15 -9 5 3 6 -2 3 -10 -3 -9 -1 -16 6 -16 6 0 9 -3 6 -8 -2 -4 8 -61 24 -127
15 -66 31 -150 35 -186 l7 -66 61 -28 c72 -35 185 -141 211 -200 38 -84 16
-191 -69 -341 -47 -82 -54 -100 -32 -88 7 4 9 3 4 -2 -5 -5 -11 -7 -13 -4 -5
6 -47 -60 -49 -80 -4 -26 -17 -50 -28 -50 -5 0 -2 10 9 23 16 19 15 18 -9 -3
-16 -14 -34 -34 -39 -45 -10 -19 -10 -19 8 -3 18 16 21 15 55 -16 19 -18 33
-38 31 -44 -2 -7 1 -12 7 -12 6 0 11 -4 11 -10 0 -5 32 -40 70 -77 39 -37 70
-72 70 -79 0 -6 7 -17 15 -24 18 -15 85 -115 85 -128 0 -5 -25 -9 -57 -7 -59
2 -239 -21 -193 -25 29 -2 66 -1 95 5 11 2 63 4 115 5 65 1 89 4 75 10 -13 6
-1 7 35 3 72 -8 117 -31 149 -78 16 -23 36 -40 51 -42 14 -2 36 -12 50 -22 14
-10 44 -28 66 -39 45 -23 64 -47 83 -109 14 -44 11 -147 -5 -162 -16 -16 -179
63 -246 120 -35 29 -67 56 -71 60 -16 13 52 50 103 56 27 3 50 9 50 13 0 12
-101 -8 -129 -26 -56 -37 -201 -179 -201 -197 0 -6 -11 -38 -25 -72 -13 -34
-27 -81 -29 -106 -4 -34 -4 -37 3 -14 4 17 22 54 40 83 20 31 31 59 27 70 -15
43 104 -103 144 -177 25 -45 53 -92 63 -104 l17 -22 20 24 c21 24 27 61 10 61
-5 0 -10 -9 -10 -20 0 -37 -41 -13 -56 32 -4 13 -29 58 -56 101 -33 53 -47 84
-43 98 4 11 11 17 16 14 5 -3 6 1 3 9 -4 11 9 25 42 46 26 16 54 30 61 30 8 0
55 -20 106 -43 51 -24 111 -50 134 -57 23 -7 52 -23 64 -36 l22 -23 -57 2
c-70 4 -79 -15 -12 -27 15 -3 34 -10 42 -17 18 -15 18 -48 -1 -55 -21 -8 -67
4 -60 16 3 5 0 7 -8 4 -8 -3 -20 2 -27 11 -14 17 -30 20 -30 5 0 -6 15 -19 33
-30 97 -57 50 -81 -75 -37 -55 18 -88 18 -88 -1 0 -5 11 -7 24 -5 13 3 27 0
30 -6 4 -6 23 -11 43 -11 35 0 35 -1 29 -32 -9 -47 -72 -138 -95 -138 -10 0
-37 -7 -59 -14 -23 -8 -44 -11 -46 -7 -3 4 -38 6 -77 3 -64 -3 -80 0 -133 25
-45 21 -60 25 -64 15 -8 -24 -64 -82 -73 -76 -5 3 -9 -1 -9 -9 0 -20 -47 -60
-64 -54 -8 3 -20 -2 -28 -11 -11 -13 -11 -15 2 -7 13 8 13 7 1 -8 -15 -19 -26
-23 -15 -6 4 7 1 10 -7 7 -8 -3 -13 -11 -12 -17 2 -6 -4 -11 -12 -11 -8 0 -24
-9 -35 -20 -12 -12 -25 -18 -31 -14 -6 3 -18 -1 -27 -9 -28 -23 -206 -101
-257 -111 -16 -4 -41 -9 -55 -11 -192 -40 -492 -63 -527 -42 -8 5 -8 22 3 65
7 31 13 64 14 73 0 22 -48 31 -92 18 -18 -5 -73 -14 -123 -19 -49 -5 -140 -16
-201 -25 -120 -16 -419 -30 -636 -30 l-137 0 -35 34 c-26 25 -44 60 -71 135
-51 147 -56 159 -60 176 -2 8 -12 36 -24 62 -20 46 -88 256 -109 333 -6 22
-20 66 -31 97 -13 37 -18 70 -14 92 4 28 -2 48 -33 103 -21 37 -44 84 -50 103
-7 19 -32 91 -57 160 -25 69 -86 242 -137 385 -50 143 -121 343 -157 445 -36
102 -74 199 -85 215 -13 19 -18 23 -14 10 10 -39 74 -211 110 -300 21 -49 43
-112 51 -140 7 -27 33 -104 58 -171 25 -66 52 -145 61 -175 9 -30 27 -83 40
-119 13 -36 38 -110 55 -165 18 -55 39 -112 47 -127 8 -16 13 -28 11 -28 -2 0
-34 38 -72 86 -37 47 -69 83 -72 81 -2 -3 43 -65 101 -139 132 -165 136 -175
125 -254 -11 -77 -57 -221 -58 -181 -1 16 -5 26 -10 23 -8 -5 -23 -131 -24
-208 -1 -22 -5 -34 -12 -31 -5 4 -2 -3 8 -14 9 -11 29 -70 42 -131 27 -119 78
-263 108 -303 l19 -24 -16 27 c-9 15 -16 34 -16 42 0 8 -5 27 -11 43 -7 15
-13 36 -14 46 -1 11 -7 22 -12 25 -6 4 -16 34 -23 67 -16 79 -25 118 -44 185
-9 30 -16 71 -15 90 0 32 2 30 25 -29 13 -35 32 -69 41 -76 18 -13 86 -9 91 6
2 5 8 7 13 4 4 -3 11 6 15 21 6 23 9 18 30 -42 13 -37 24 -69 24 -70 0 -1 -16
-12 -36 -24 -19 -12 -33 -25 -30 -27 3 -3 21 4 40 16 l34 22 13 -38 c7 -21 13
-41 14 -45 0 -3 3 -9 7 -13 3 -3 -13 -26 -37 -50 -45 -44 -75 -116 -75 -177 0
-38 55 -180 96 -249 19 -31 34 -59 34 -63 0 -13 -115 -5 -166 11 -38 12 -62
27 -83 54 -47 58 -97 156 -132 259 -30 86 -33 107 -34 212 0 89 -3 118 -13
118 -7 0 -41 -14 -75 -31 -130 -66 -231 -87 -244 -51 -4 9 -24 37 -45 61 -21
24 -52 67 -68 95 -38 67 -90 229 -90 281 0 42 25 173 34 183 16 15 116 42 157
42 51 0 50 -1 65 70 7 37 33 84 42 76 2 -3 14 0 26 6 11 6 33 11 49 10 36 -3
35 17 -5 54 -17 16 -28 22 -24 14 4 -8 -5 1 -21 20 -15 19 -44 53 -64 75 -61
70 -107 139 -144 220 -32 69 -59 170 -50 185 2 3 6 41 9 85 4 44 17 139 31
210 13 72 35 195 49 274 14 79 29 147 35 150 6 4 4 27 -6 61 -37 137 -37 129
-1 174 33 41 33 41 35 161 2 159 26 325 73 513 41 159 52 181 118 245 37 36
43 38 113 41 41 2 107 -3 147 -10 41 -8 117 -14 170 -14 54 -1 131 -6 172 -11
41 -6 114 -12 161 -14 80 -3 116 -7 324 -36 70 -10 96 -9 209 10 118 20 147
30 230 78 11 7 33 13 48 13 15 0 45 6 65 14 56 21 100 27 138 16z m1589 -85
c33 -14 49 -35 26 -35 -5 0 -10 5 -10 10 0 6 -5 10 -11 10 -5 0 -7 -5 -3 -11
4 -8 0 -9 -15 -4 -23 7 -25 2 -11 -30 7 -17 9 -17 9 -2 1 19 21 23 38 6 8 -8
13 -5 18 10 3 12 11 21 16 21 6 0 7 -4 4 -10 -3 -5 -1 -10 5 -10 7 0 10 -6 7
-12 -2 -7 -10 -12 -16 -10 -6 1 -11 -5 -11 -13 0 -8 3 -15 6 -15 10 0 34 28
34 40 0 6 12 0 27 -14 15 -14 30 -23 33 -21 4 2 7 -2 7 -10 0 -18 -24 -28 -33
-13 -4 7 -3 8 4 4 7 -4 12 -3 12 1 0 5 -9 14 -21 21 -12 8 -18 9 -15 3 4 -5
-2 -15 -11 -21 -17 -11 -17 -11 0 -6 14 4 23 -5 15 -16 -1 -2 4 -13 11 -26 10
-20 9 -23 -15 -34 -22 -10 -28 -10 -39 5 -7 10 -26 17 -44 17 -19 0 -34 6 -37
15 -4 8 -10 15 -16 15 -5 0 -6 -5 -3 -10 4 -6 1 -9 -7 -8 -7 2 -13 -4 -13 -12
0 -10 11 -15 35 -16 66 -2 80 -4 80 -15 0 -6 -9 -8 -22 -3 -20 6 -21 5 -9 -10
8 -9 9 -16 3 -16 -6 0 -13 4 -16 9 -4 5 -31 17 -62 27 -48 15 -53 19 -35 25
11 5 21 14 21 21 0 9 -3 9 -12 0 -7 -7 -17 -12 -22 -12 -6 0 0 7 13 16 22 16
23 22 18 79 -8 82 -1 88 67 60z m181 -143 c-3 -3 -11 0 -18 7 -9 10 -8 11 6 5
10 -3 15 -9 12 -12z m-3811 -50 c2 -4 -4 -8 -15 -8 -10 0 -19 4 -19 8 0 4 6 8
14 8 8 0 17 -4 20 -8z m3809 -22 c-8 -3 -14 -10 -13 -14 1 -5 -16 -19 -37 -31
-32 -20 -41 -21 -56 -10 -19 14 -32 55 -16 55 5 0 9 -9 9 -19 0 -11 5 -23 11
-27 8 -4 9 1 5 17 -3 13 -3 19 0 12 3 -7 12 -9 20 -6 12 4 12 8 -3 19 -16 13
-15 13 9 3 l27 -12 -22 -18 c-29 -24 -15 -24 25 1 18 11 27 20 20 20 -9 0 -10
4 0 19 8 14 14 16 24 7 9 -9 9 -12 -3 -16z m-4003 -210 c-9 -6 -9 -9 1 -13 8
-3 10 -6 4 -6 -5 0 -16 3 -24 8 -18 11 -5 32 15 24 11 -4 12 -8 4 -13z m4306
-313 c2 -17 -32 -44 -44 -33 -3 3 0 6 7 6 7 0 9 4 6 10 -3 6 1 7 10 4 10 -4
15 -2 13 7 -2 8 -12 17 -23 21 -17 6 -17 7 4 5 14 -1 25 -9 27 -20z m-366
-137 c0 -13 -6 -20 -17 -19 -10 0 -13 3 -6 5 7 3 9 12 6 20 -3 8 0 14 6 14 6
0 11 -9 11 -20z m-3841 -199 c8 -14 7 -22 -4 -31 -19 -16 -45 -6 -45 18 0 36
33 45 49 13z m4208 -23 c-3 -8 -6 -5 -6 6 -1 11 2 17 5 13 3 -3 4 -12 1 -19z
m43 -2 c-7 -7 -13 -7 -20 0 -6 6 -3 10 10 10 13 0 16 -4 10 -10z m-527 -103
c-7 -2 -13 -9 -13 -14 0 -6 6 -7 13 -3 6 4 5 -1 -4 -10 -11 -12 -22 -14 -39
-8 -19 7 -20 10 -7 15 10 4 17 2 17 -3 0 -6 4 -10 9 -10 5 0 7 9 4 20 -4 15
-1 20 13 19 11 0 14 -3 7 -6z m-4373 -108 c0 -2 -6 -5 -13 -8 -8 -3 -14 1 -14
8 0 7 6 11 14 8 7 -3 13 -6 13 -8z m4469 -243 c7 -13 4 -23 -15 -39 -13 -12
-24 -17 -24 -12 0 5 9 14 19 21 19 11 18 38 -1 38 -5 0 -6 -5 -2 -11 4 -7 -1
-10 -11 -7 -10 1 -20 9 -23 16 -6 19 46 15 57 -6z m-4349 -27 c0 -21 -16 -26
-30 -10 -11 13 -10 14 5 8 15 -5 17 -3 12 11 -4 10 -3 15 3 11 6 -3 10 -12 10
-20z m4281 -8 c-10 -9 -11 -8 -5 6 3 10 9 15 12 12 3 -3 0 -11 -7 -18z m-541
-449 c0 -6 -6 -5 -15 2 -8 7 -15 14 -15 16 0 2 7 1 15 -2 8 -4 15 -11 15 -16z
m473 -49 c-6 -6 -9 -18 -6 -25 6 -16 43 -19 43 -3 0 5 -4 8 -9 4 -5 -3 -13 0
-17 6 -5 8 -3 9 6 4 10 -6 12 -4 6 10 -5 15 -4 16 9 5 17 -14 20 -36 4 -45
-15 -10 -59 3 -59 18 0 13 19 37 29 37 3 0 0 -5 -6 -11z m420 -96 c-7 -3 -13
-12 -13 -21 0 -15 2 -15 10 -2 8 13 10 13 10 -2 0 -11 5 -15 15 -12 8 4 15 14
15 23 0 14 -2 14 -10 1 -6 -9 -10 -10 -10 -3 0 20 20 26 26 8 4 -9 0 -23 -9
-32 -29 -29 -73 11 -47 42 7 9 16 13 19 9 3 -4 0 -9 -6 -11z m-4205 -478 c55
-17 69 -29 54 -48 -14 -17 -26 -92 -26 -166 -1 -70 2 -66 -73 -77 -24 -3 -33
-1 -33 10 0 15 24 39 32 31 3 -3 13 4 23 15 16 18 16 20 1 26 -9 3 -14 10 -11
14 3 5 -3 6 -14 3 -10 -3 -22 0 -25 6 -4 5 -13 8 -21 5 -25 -10 -115 28 -115
47 0 25 28 38 61 29 15 -5 30 -6 33 -2 10 10 6 22 -7 22 -8 0 -24 11 -37 24
-29 32 -21 58 17 52 16 -2 32 -5 37 -5 4 -1 6 -7 3 -13 -3 -9 8 -14 34 -15 47
-3 50 8 8 24 -17 7 -28 17 -24 22 8 15 22 14 83 -4z m770 -169 c-7 -8 -15 -12
-17 -11 -5 6 10 25 20 25 5 0 4 -6 -3 -14z m-303 -696 c-3 -6 4 -10 18 -10 24
0 55 -25 44 -36 -2 -3 1 -27 8 -55 7 -27 9 -47 4 -43 -5 3 -9 0 -9 -5 0 -6 4
-11 9 -11 5 0 11 -8 14 -17 2 -10 8 -27 12 -38 4 -11 -5 0 -19 24 -17 28 -24
52 -21 65 5 17 4 18 -4 6 -6 -8 -8 -31 -5 -50 7 -36 41 -83 54 -75 5 3 10 -1
13 -9 5 -11 0 -13 -23 -6 -16 5 -34 11 -40 15 -20 12 -58 81 -73 132 -13 43
-13 55 -2 77 8 14 12 26 9 26 -3 0 -2 5 1 10 3 6 8 10 11 10 3 0 2 -4 -1 -10z
m2783 -102 c7 -7 12 -17 12 -24 0 -16 -94 -109 -142 -141 -21 -14 -38 -31 -38
-38 0 -6 -9 -20 -20 -30 -19 -18 -20 -17 -20 3 0 12 5 22 11 22 6 0 9 6 6 14
-3 7 0 19 6 26 9 10 9 11 -2 5 -8 -5 -2 8 13 28 16 20 31 37 33 37 3 0 -1 -8
-8 -17 -11 -14 -9 -14 9 1 17 15 19 22 10 28 -9 5 -10 8 -1 8 6 0 19 13 29 28
16 28 59 61 80 62 5 0 15 -5 22 -12z m-1555 -27 c24 -1 27 -4 23 -27 -8 -44
-34 -64 -83 -64 -36 0 -45 4 -55 25 -17 38 11 74 54 71 18 -2 45 -4 61 -5z
m-167 -23 c5 -7 2 -9 -7 -6 -20 8 -59 -9 -58 -24 0 -10 2 -10 6 0 7 17 23 15
23 -4 0 -11 -6 -15 -20 -11 -11 3 -23 1 -26 -5 -4 -7 -9 -6 -14 2 -5 8 -9 8
-13 -3 -4 -12 6 -15 57 -15 35 0 88 -9 124 -21 34 -12 69 -21 78 -21 9 0 36
18 60 40 54 50 101 54 141 14 23 -23 25 -31 21 -82 -3 -31 -8 -64 -12 -73 -10
-24 20 -32 54 -14 33 17 49 18 69 6 19 -12 -3 -51 -29 -51 -14 0 -18 -5 -13
-17 6 -16 5 -17 -12 -3 -12 9 -16 10 -11 2 15 -25 25 -73 14 -66 -7 5 -9 0 -6
-12 5 -20 0 -27 -65 -81 -21 -18 -35 -33 -29 -33 5 0 27 16 48 35 27 25 40 31
45 23 6 -9 10 -8 15 5 3 9 11 14 17 10 6 -4 7 -1 3 6 -5 7 0 21 11 33 10 12
12 18 6 14 -7 -4 -13 -2 -13 4 0 17 21 54 36 63 8 4 14 13 14 20 0 7 -4 6 -10
-3 -11 -17 -13 -10 -4 14 3 9 10 14 14 11 4 -3 11 2 14 11 3 8 2 12 -4 9 -14
-9 -13 -3 15 62 33 76 71 99 159 96 34 -1 70 -3 81 -5 11 -2 19 2 18 7 -1 6 8
12 20 12 17 2 18 0 7 -7 -19 -12 -16 -13 59 -35 34 -10 83 -32 108 -47 l45
-29 19 25 c27 34 104 77 141 78 66 2 93 -93 52 -190 -13 -32 -12 -33 19 -53
18 -12 24 -18 13 -15 -14 5 -17 3 -11 -11 31 -73 39 -47 -113 -354 -1 -4 10
-9 25 -12 15 -3 35 -8 44 -12 13 -5 18 1 21 29 2 20 1 42 -4 49 -4 9 -2 14 6
14 8 0 12 -5 10 -11 -2 -6 5 -17 17 -24 17 -11 20 -11 14 0 -6 10 -5 10 5 1 7
-7 13 -26 13 -43 0 -16 1 -30 1 -30 1 0 16 4 34 10 28 7 32 7 23 -4 -18 -21 4
-70 27 -61 9 3 36 10 60 15 43 8 67 20 41 20 -20 1 66 39 126 57 81 23 178 44
183 38 3 -3 -3 -5 -13 -5 -13 0 -15 -3 -6 -13 15 -19 4 -27 -41 -27 -36 0 -57
-20 -20 -20 16 -1 16 -1 0 -14 -10 -7 -16 -15 -14 -17 2 -2 -9 -5 -25 -6 -15
-1 -39 -9 -51 -17 -13 -8 -39 -17 -58 -21 -19 -4 -47 -13 -61 -20 -15 -8 -31
-10 -39 -5 -8 5 -27 3 -47 -5 -21 -9 -35 -10 -39 -4 -3 6 -13 8 -21 5 -9 -4
-11 -2 -7 6 5 7 2 9 -9 5 -9 -3 -18 -1 -20 6 -2 7 -8 -5 -12 -25 -10 -53 -55
-65 -55 -14 0 12 -6 30 -13 40 -11 15 -17 16 -35 7 -14 -7 -23 -8 -27 -1 -4 6
-11 8 -16 4 -6 -3 -9 2 -7 12 2 13 -15 25 -72 51 -64 28 -82 33 -125 28 -27
-4 -70 -17 -95 -29 -25 -12 -57 -26 -72 -29 -17 -5 -30 -17 -37 -38 -10 -29
-12 -31 -51 -24 -33 6 -39 4 -34 -8 7 -18 -32 -61 -47 -51 -5 3 -42 5 -82 4
-120 -4 -179 0 -209 16 -36 18 -36 26 0 18 15 -4 24 -3 19 1 -14 16 -200 25
-269 13 -23 -4 -38 -2 -38 3 0 6 -5 7 -10 4 -6 -4 -7 -11 -4 -17 4 -6 2 -8 -4
-4 -6 3 -13 2 -17 -4 -3 -6 -24 -20 -47 -31 -38 -19 -41 -19 -59 -3 -10 9 -20
29 -20 43 -1 17 -3 20 -6 9 -5 -19 -45 -34 -62 -24 -5 3 -11 2 -13 -4 -1 -5
-18 -13 -37 -16 -28 -6 -33 -4 -26 7 6 11 5 11 -5 2 -9 -9 -17 -9 -31 0 -14 9
-21 9 -31 -1 -11 -11 -10 -12 5 -7 9 4 17 5 17 2 0 -16 -33 -13 -57 6 -15 12
-30 21 -33 21 -17 -4 -51 24 -75 62 -44 69 -54 73 -147 59 -58 -9 -137 2 -145
20 -7 20 35 75 58 75 24 0 81 52 72 65 -5 6 -25 23 -47 39 l-38 29 -85 -13
c-46 -7 -98 -19 -115 -27 -28 -15 -31 -14 -58 12 -16 15 -34 25 -42 22 -18 -6
-67 23 -74 45 -7 24 -40 23 -109 -3 -61 -23 -85 -20 -85 9 0 32 32 51 88 53
54 2 60 7 39 28 -10 10 -8 11 8 5 18 -6 17 -4 -2 10 -13 10 -23 26 -23 36 0
20 49 60 74 60 9 0 33 9 53 20 21 11 46 20 55 20 14 0 18 8 18 36 0 42 23 43
28 0 4 -29 39 -50 69 -40 16 5 16 4 3 -6 -13 -10 -11 -11 8 -7 12 3 20 1 16
-4 -3 -5 4 -9 14 -9 11 0 23 -7 26 -16 4 -9 9 -14 12 -11 3 3 25 -8 47 -24 40
-29 120 -69 138 -69 5 0 9 9 9 19 0 26 8 30 67 32 48 2 49 3 67 44 20 50 38
68 85 84 26 8 37 8 48 -1 11 -9 17 -9 24 3 6 9 7 3 3 -18 -4 -20 -2 -33 3 -33
6 0 13 17 16 38 3 20 9 52 13 71 6 28 4 33 -7 26 -8 -4 -7 0 3 11 13 13 37 19
83 22 52 4 68 8 76 24 6 11 13 17 16 14 3 -3 19 6 35 19 32 27 53 31 64 13z
m854 9 c0 -2 -12 -14 -27 -28 l-28 -24 24 28 c23 25 31 32 31 24z m-76 -37
c-10 -16 -20 -27 -22 -25 -5 5 26 55 34 55 3 0 -3 -13 -12 -30z m-774 4 c0 -2
-7 -4 -15 -4 -8 0 -15 4 -15 10 0 5 7 7 15 4 8 -4 15 -8 15 -10z m1070 -18 c0
-8 -5 -18 -11 -21 -6 -4 -8 -13 -5 -21 3 -9 -4 -19 -19 -26 -19 -9 -29 -7 -50
6 -28 19 -29 33 -2 50 12 8 23 7 39 -3 21 -13 22 -13 10 2 -11 13 -10 16 5 20
31 8 33 7 33 -7z m944 -88 c-8 -27 -21 -37 -99 -78 -78 -41 -98 -56 -90 -69 4
-7 0 -8 -11 -4 -12 4 -15 3 -10 -6 5 -7 0 -18 -10 -27 -18 -14 -18 -15 4 -9
32 9 29 -20 -5 -42 -31 -21 -53 -25 -53 -11 0 6 7 8 15 4 8 -3 15 -1 15 4 0 6
-5 10 -11 10 -6 0 -9 7 -5 15 4 13 2 13 -14 5 -10 -5 -22 -15 -25 -20 -3 -6
-15 -10 -25 -10 -16 0 -154 -86 -205 -128 l-20 -17 20 25 c11 14 25 28 32 33
30 19 44 40 33 47 -9 5 -2 15 19 31 26 19 29 25 18 38 -11 14 -10 14 6 2 13
-11 21 -11 29 -3 14 14 20 44 7 36 -5 -3 -6 -11 -2 -17 4 -7 0 -7 -10 1 -9 8
-21 11 -28 7 -6 -4 -15 -2 -19 4 -5 9 -16 5 -37 -13 -17 -14 -37 -26 -44 -26
-8 -1 -30 -14 -49 -30 -19 -17 -41 -30 -48 -30 -9 0 -12 -6 -7 -17 4 -13 3
-15 -5 -7 -13 13 3 64 20 64 6 0 4 7 -4 16 -9 8 -16 20 -16 26 0 6 -8 7 -17 3
-13 -4 -15 -3 -7 5 8 8 19 8 38 0 31 -11 85 -10 101 2 69 56 104 73 149 77 30
2 51 -1 56 -9 5 -8 16 -3 37 14 17 15 38 24 45 21 8 -3 21 1 28 10 7 8 17 15
22 15 6 0 24 10 41 23 18 12 39 23 47 24 8 1 33 9 55 17 22 8 41 15 43 16 2 0
0 -10 -4 -22z m-2307 -20 c-3 -8 -6 -5 -6 6 -1 11 2 17 5 13 3 -3 4 -12 1 -19z
m-978 -120 c17 -17 31 -38 31 -45 0 -23 -30 -27 -58 -6 -15 10 -46 25 -70 32
-68 19 -49 37 54 50 7 0 26 -13 43 -31z m2562 5 c13 -16 12 -17 -3 -4 -10 7
-18 15 -18 17 0 8 8 3 21 -13z m-3 -38 c-3 -3 -9 2 -12 12 -6 14 -5 15 5 6 7
-7 10 -15 7 -18z m681 -55 c58 -29 62 -79 7 -87 -11 -2 -24 -7 -30 -12 -6 -5
-27 -12 -47 -16 -21 -4 -88 -36 -150 -71 -114 -64 -144 -73 -179 -54 -13 7
-21 7 -25 0 -3 -5 -11 -10 -16 -10 -6 0 -3 8 7 17 16 16 15 18 -12 25 -22 6
-33 3 -49 -12 -25 -24 -45 -26 -45 -5 0 8 20 28 45 45 25 17 45 34 45 37 0 3
-8 -1 -17 -8 -16 -13 -17 -12 -4 3 7 10 17 15 22 12 15 -9 50 6 43 18 -4 7 -2
8 4 4 6 -4 21 -2 33 5 17 9 19 13 8 20 -17 10 -8 12 16 2 15 -5 15 -8 -6 -24
-36 -27 -13 -44 30 -23 26 13 30 19 20 26 -10 7 -9 8 5 4 26 -9 66 19 61 43
-2 13 1 18 9 15 8 -3 20 2 29 10 9 9 23 16 31 16 9 0 16 4 16 9 0 9 59 28 93
30 10 1 35 -8 56 -19z m-613 -13 c3 -2 -7 -4 -21 -4 -14 0 -27 3 -30 7 -5 8
43 5 51 -3z m89 -36 c-3 -6 -11 -11 -17 -11 -6 0 -6 6 2 15 14 17 26 13 15 -4z
m-2 -72 c-8 -8 -13 -7 -18 2 -5 8 -4 10 3 5 7 -4 12 -2 12 5 0 7 3 9 7 6 4 -4
2 -12 -4 -18z m-167 -31 c-6 -46 -21 -71 -21 -33 0 12 4 21 8 18 5 -3 8 1 6 8
-3 23 1 49 6 49 3 0 3 -19 1 -42z m144 7 c0 -5 -5 -3 -10 5 -5 8 -10 20 -10
25 0 6 5 3 10 -5 5 -8 10 -19 10 -25z m-100 -11 c0 -8 -19 -13 -24 -6 -3 5 1
9 9 9 8 0 15 -2 15 -3z m144 -11 c4 -10 4 -14 0 -10 -4 4 -20 -5 -36 -20 -36
-34 -37 -18 -1 19 32 33 29 32 37 11z m-89 -3 c-3 -5 -12 -10 -18 -10 -7 0 -6
4 3 10 19 12 23 12 15 0z m486 -47 c13 -16 12 -17 -3 -4 -17 13 -22 21 -14 21
2 0 10 -8 17 -17z m89 -52 c11 -14 70 -51 80 -51 24 0 3 -34 -25 -42 -69 -18
-206 -31 -218 -19 -8 8 -2 10 24 9 46 -2 84 10 106 34 23 26 23 49 -2 71 -20
18 -20 18 5 11 14 -4 27 -9 30 -13z m-734 -13 c5 -7 3 -8 -6 -3 -9 5 -10 2 -5
-14 3 -11 2 -21 -3 -21 -17 0 -21 13 -11 31 11 22 15 23 25 7z m11 -52 c0 -8
-6 -12 -15 -9 -11 5 -11 7 0 14 7 5 13 9 14 9 0 0 1 -6 1 -14z m1017 -30 c47
-44 47 -60 -1 -53 -20 4 -39 11 -42 16 -3 5 -24 12 -46 16 -63 11 -76 16 -72
28 4 12 48 23 99 26 18 1 38 -10 62 -33z m-3064 -16 c10 -7 -10 -9 -65 -9 -55
1 -72 3 -55 9 36 11 102 11 120 0z m-200 -29 c-8 -5 -44 -12 -78 -15 -76 -9
-109 -20 -109 -38 0 -7 -4 -21 -8 -30 -5 -13 -1 -20 18 -27 14 -5 27 -15 29
-21 2 -6 28 -20 57 -30 l54 -18 -27 -25 c-38 -35 -29 -81 19 -104 43 -21 56
-46 17 -32 -15 5 -37 18 -50 29 -28 23 -40 83 -22 105 8 10 9 15 2 15 -6 0
-26 13 -44 29 -18 15 -43 31 -55 35 -13 4 -24 15 -24 24 -1 9 -3 27 -4 39 -1
12 1 20 6 17 10 -6 31 31 23 39 -4 3 6 5 21 3 15 -2 42 0 59 4 44 11 135 11
116 1z m67 3 c-3 -3 -12 -4 -19 -1 -8 3 -5 6 6 6 11 1 17 -2 13 -5z m2094 -27
c-10 -9 -11 -8 -5 6 3 10 9 15 12 12 3 -3 0 -11 -7 -18z m-1890 -24 c13 -16
12 -17 -3 -4 -10 7 -18 15 -18 17 0 8 8 3 21 -13z m2433 1 c6 -15 4 -15 -11
-3 -10 7 -20 15 -22 16 -2 2 3 3 11 3 9 0 19 -7 22 -16z m-3159 -4 c-3 -5 -12
-10 -18 -10 -7 0 -6 4 3 10 19 12 23 12 15 0z m-36 -14 c-2 -2 -15 -9 -29 -15
-24 -11 -24 -11 -6 3 16 13 49 24 35 12z m3424 -3 c-7 -2 -19 -2 -25 0 -7 3
-2 5 12 5 14 0 19 -2 13 -5z m154 -29 c-3 -3 -12 -4 -19 -1 -8 3 -5 6 6 6 11
1 17 -2 13 -5z m-627 -7 c0 -2 -11 -14 -25 -27 -14 -13 -25 -21 -25 -17 0 3
10 15 22 27 21 19 28 24 28 17z m-2999 -44 c13 -16 12 -17 -3 -4 -17 13 -22
21 -14 21 2 0 10 -8 17 -17z m140 -7 c28 -1 35 -4 31 -15 -4 -10 -1 -12 7 -6
9 5 12 2 9 -11 -5 -24 -56 -24 -110 -1 -50 21 -54 53 -5 42 17 -5 48 -9 68 -9z
m3559 -16 c6 -11 8 -20 6 -20 -3 0 -10 9 -16 20 -6 11 -8 20 -6 20 3 0 10 -9
16 -20z m-1711 -29 c15 -9 20 -16 13 -23 -7 -7 -16 -7 -29 1 -14 8 -14 11 -3
11 13 0 13 1 0 10 -21 14 -33 12 -24 -2 4 -8 3 -10 -2 -5 -5 5 -9 12 -9 15 0
4 -5 14 -10 22 -8 13 -5 12 15 -1 14 -9 36 -22 49 -28z m-836 2 c-4 -11 -3
-14 5 -9 7 4 26 -6 44 -25 35 -33 19 -30 -19 4 -13 11 -23 17 -23 13 0 -5 -7
-3 -15 4 -15 12 -12 30 5 30 5 0 6 -7 3 -17z m740 2 c-3 -9 -8 -14 -10 -11 -3
3 -2 9 2 15 9 16 15 13 8 -4z m-623 -17 c0 -6 -6 -5 -15 2 -8 7 -15 14 -15 16
0 2 7 1 15 -2 8 -4 15 -11 15 -16z m600 8 c0 -2 -9 -6 -20 -9 -11 -3 -18 -1
-14 4 5 9 34 13 34 5z m1850 -6 c8 -5 11 -10 5 -10 -5 0 -17 5 -25 10 -8 5
-10 10 -5 10 6 0 17 -5 25 -10z m45 0 c3 -5 1 -10 -4 -10 -6 0 -11 5 -11 10 0
6 2 10 4 10 3 0 8 -4 11 -10z m-2452 -7 c-7 -2 -19 -2 -25 0 -7 3 -2 5 12 5
14 0 19 -2 13 -5z m436 -2 c9 -6 10 -11 2 -15 -6 -4 -18 0 -27 8 -12 12 -12
16 -2 16 7 0 19 -4 27 -9z m71 -1 c0 -5 -4 -10 -10 -10 -5 0 -10 5 -10 10 0 6
5 10 10 10 6 0 10 -4 10 -10z m-420 -4 c0 -3 -4 -8 -10 -11 -5 -3 -10 -1 -10
4 0 6 5 11 10 11 6 0 10 -2 10 -4z m1525 -14 c-3 -3 -11 0 -18 7 -9 10 -8 11
6 5 10 -3 15 -9 12 -12z m-1785 -2 c0 -5 8 -7 18 -3 14 5 15 3 4 -8 -10 -11
-15 -10 -29 4 -11 11 -13 17 -5 17 7 0 12 -4 12 -10z m433 3 c-7 -2 -21 -2
-30 0 -10 3 -4 5 12 5 17 0 24 -2 18 -5z m-239 -32 c-2 -3 -12 3 -22 13 -16
17 -16 18 5 5 12 -7 20 -15 17 -18z m313 23 c-3 -3 -12 -4 -19 -1 -8 3 -5 6 6
6 11 1 17 -2 13 -5z m72 -78 c-6 -6 -14 -5 -21 3 -11 10 -9 11 7 5 18 -7 19
-6 5 12 -8 10 -21 25 -27 32 -7 7 -13 18 -13 24 0 7 13 -6 29 -28 19 -24 26
-43 20 -48z m60 77 c0 -5 -4 -17 -8 -28 -8 -19 -8 -19 -20 4 -8 15 -9 21 -2
17 6 -4 11 -2 11 3 0 6 5 11 10 11 6 0 10 -3 9 -7z m64 -10 c-3 -7 -6 -13 -8
-13 -2 0 -5 6 -8 13 -3 8 1 14 8 14 7 0 11 -6 8 -14z m-1430 -8 c-3 -9 -8 -14
-10 -11 -3 3 -2 9 2 15 9 16 15 13 8 -4z m707 -7 c0 -6 -6 -5 -15 2 -8 7 -15
14 -15 16 0 2 7 1 15 -2 8 -4 15 -11 15 -16z m1027 16 c-3 -3 -12 -4 -19 -1
-8 3 -5 6 6 6 11 1 17 -2 13 -5z m493 -4 c0 -5 -4 -10 -9 -10 -6 0 -13 5 -16
10 -3 6 1 10 9 10 9 0 16 -4 16 -10z m-1450 -4 c0 -3 -4 -8 -10 -11 -5 -3 -10
-1 -10 4 0 6 5 11 10 11 6 0 10 -2 10 -4z m1780 -6 c0 -5 -2 -10 -4 -10 -3 0
-8 5 -11 10 -3 6 -1 10 4 10 6 0 11 -4 11 -10z m103 3 c-7 -2 -19 -2 -25 0 -7
3 -2 5 12 5 14 0 19 -2 13 -5z m54 1 c-3 -3 -12 -4 -19 -1 -8 3 -5 6 6 6 11 1
17 -2 13 -5z m-1839 -34 c28 0 37 -16 12 -23 -11 -3 -18 -2 -15 3 3 4 -6 11
-19 14 -13 3 -27 13 -30 23 -6 16 -6 16 12 0 10 -9 28 -17 40 -17z m2375 10
c4 0 5 4 2 10 -4 6 1 7 11 3 11 -4 13 -8 6 -11 -7 -2 -9 -8 -6 -14 4 -6 -2 -6
-14 1 -12 6 -24 17 -28 24 -5 9 -4 9 7 0 7 -7 17 -13 22 -13z m-2508 0 c3 -6
-1 -7 -9 -4 -18 7 -21 14 -7 14 6 0 13 -4 16 -10z m725 0 c0 -5 -4 -10 -10
-10 -5 0 -10 5 -10 10 0 6 5 10 10 10 6 0 10 -4 10 -10z m950 5 c0 -2 -10 -9
-22 -15 -22 -11 -22 -10 -4 4 21 17 26 19 26 11z m-180 -26 c0 -6 -4 -7 -10
-4 -5 3 -10 11 -10 16 0 6 5 7 10 4 6 -3 10 -11 10 -16z m377 15 c-3 -3 -12
-4 -19 -1 -8 3 -5 6 6 6 11 1 17 -2 13 -5z m-408 -18 c9 -11 -4 -16 -76 -29
-92 -17 -125 -16 -51 2 l43 10 -57 -3 c-32 -1 -58 1 -58 6 0 4 24 9 53 9 28 1
66 5 82 9 45 12 52 11 64 -4z m1192 3 c24 -12 16 -29 -14 -28 -21 0 -21 1 -2
8 19 8 19 8 0 19 -25 14 -11 16 16 1z m-1904 -25 c13 -14 22 -29 19 -32 -4 -3
-7 -3 -8 -1 -2 2 -14 16 -27 32 -31 35 -16 36 16 1z m-76 -1 c13 -17 13 -17
-6 -3 -11 8 -22 16 -24 17 -2 2 0 3 6 3 6 0 17 -8 24 -17z m482 10 c-7 -2 -19
-2 -25 0 -7 3 -2 5 12 5 14 0 19 -2 13 -5z m-963 -19 c0 -2 -9 -4 -21 -4 -11
0 -18 4 -14 10 5 8 35 3 35 -6z m53 -21 c-7 -2 -21 -2 -30 0 -10 3 -4 5 12 5
17 0 24 -2 18 -5z"/>
<path d="M4238 5073 c7 -3 16 -2 19 1 4 3 -2 6 -13 5 -11 0 -14 -3 -6 -6z"/>
<path d="M4400 4969 c0 -5 5 -7 10 -4 6 3 10 8 10 11 0 2 -4 4 -10 4 -5 0 -10
-5 -10 -11z"/>
<path d="M2738 4893 c6 -2 18 -2 25 0 6 3 1 5 -13 5 -14 0 -19 -2 -12 -5z"/>
<path d="M1096 4685 c-49 -24 -68 -43 -65 -67 4 -32 -2 -59 -11 -53 -6 4 -10
3 -8 -2 1 -4 -6 -26 -16 -48 -22 -51 -36 -110 -35 -155 0 -29 1 -32 10 -17 15
26 29 21 29 -10 0 -16 7 -40 15 -56 13 -25 12 -29 -11 -54 -25 -27 -27 -49 -6
-71 11 -13 16 -33 13 -59 -3 -21 18 -24 29 -4 5 11 9 24 8 28 -3 10 31 55 50
67 8 5 20 -1 31 -16 l19 -23 24 20 23 20 -20 -24 c-11 -13 -51 -44 -89 -69
-54 -35 -70 -42 -78 -31 -7 11 -8 10 -6 -3 2 -12 -22 -36 -72 -74 -111 -82
-42 -60 83 27 53 38 97 66 97 64 0 -3 15 2 33 12 81 43 193 73 306 83 377 33
399 33 854 14 77 -3 117 -1 117 5 0 6 -18 14 -41 17 -25 4 -36 10 -28 15 8 5
0 13 -26 23 -20 9 -39 16 -41 16 -1 0 -69 32 -151 71 -162 77 -225 105 -323
138 -36 13 -73 27 -82 32 -13 7 -32 0 -72 -26 -55 -35 -91 -49 -48 -19 12 8
20 20 17 25 -4 5 2 6 12 2 16 -6 17 -5 3 13 -11 15 -11 16 0 7 17 -15 34 -17
25 -3 -3 6 1 7 9 4 9 -3 16 -2 16 3 0 5 -30 20 -67 33 -38 13 -122 46 -188 73
-129 53 -258 97 -278 96 -7 0 -34 -11 -61 -24z m98 -14 c4 -5 -4 -7 -16 -3
-16 4 -19 2 -13 -9 7 -11 5 -11 -10 1 -13 11 -19 12 -22 3 -2 -7 -11 -9 -19
-6 -17 6 -49 -17 -36 -26 6 -4 5 -11 -3 -18 -15 -14 -40 0 -30 17 23 37 133
67 149 41z m21 -31 c3 -5 1 -10 -4 -10 -6 0 -11 5 -11 10 0 6 2 10 4 10 3 0 8
-4 11 -10z m12 -87 c-8 -7 -37 9 -31 19 3 5 12 4 20 -3 8 -6 13 -14 11 -16z
m-162 5 c-11 -6 -26 -17 -32 -26 -7 -9 -15 -13 -19 -10 -8 9 37 48 55 48 12
-1 11 -3 -4 -12z m422 -14 c-3 -3 -12 -4 -19 -1 -8 3 -5 6 6 6 11 1 17 -2 13
-5z m-257 -14 c0 -5 -2 -10 -4 -10 -3 0 -8 5 -11 10 -3 6 -1 10 4 10 6 0 11
-4 11 -10z m65 -10 c3 -5 1 -10 -4 -10 -6 0 -11 5 -11 10 0 6 2 10 4 10 3 0 8
-4 11 -10z m125 -25 c0 -12 -78 -55 -102 -55 -14 0 24 47 47 59 30 14 55 13
55 -4z m-140 -76 c0 -5 11 -9 24 -9 33 0 57 -10 50 -21 -3 -5 2 -6 10 -3 9 3
16 1 16 -5 0 -8 4 -8 14 1 8 7 12 16 9 21 -2 4 3 7 12 7 8 0 18 7 21 15 6 16
24 11 24 -6 0 -6 -4 -8 -9 -5 -5 3 -11 -1 -15 -9 -5 -14 6 -20 29 -15 5 1 2
-7 -8 -18 -9 -10 -14 -21 -11 -24 6 -7 -15 -23 -111 -84 -38 -24 -71 -40 -73
-34 -2 5 -10 10 -18 10 -18 0 -17 10 1 34 13 17 15 18 15 3 0 -9 7 -17 16 -17
9 0 12 -5 8 -12 -4 -7 -3 -8 5 -4 6 4 8 13 4 19 -11 18 -11 47 0 54 6 3 7 1 3
-5 -4 -7 -3 -12 3 -12 5 0 13 5 16 10 3 6 11 10 17 10 5 0 0 -9 -13 -20 -13
-10 -19 -19 -12 -20 6 0 15 5 18 11 4 5 12 8 18 6 16 -6 47 11 47 24 0 6 -7 3
-16 -5 -19 -20 -25 -20 -18 -2 7 19 -13 56 -31 56 -8 0 -12 -6 -10 -12 3 -8
-17 -26 -45 -43 -28 -16 -50 -32 -50 -35 0 -3 -10 -6 -22 -7 -20 -2 -21 0 -8
10 20 15 16 63 -6 88 -13 15 -14 22 -5 33 9 11 9 16 0 21 -8 6 -7 10 2 16 10
6 11 9 2 9 -19 0 -15 18 5 22 18 4 92 -39 92 -53z m145 41 c-3 -5 -14 -10 -23
-10 -15 0 -15 2 -2 10 20 13 33 13 25 0z m145 -30 c8 -5 11 -10 5 -10 -5 0
-17 5 -25 10 -8 5 -10 10 -5 10 6 0 17 -5 25 -10z m-163 -6 c-3 -3 -12 -4 -19
-1 -8 3 -5 6 6 6 11 1 17 -2 13 -5z m143 -9 c0 -5 -90 -65 -98 -65 -3 0 9 13
28 29 19 16 39 26 44 23 5 -3 7 2 3 11 -4 11 -2 14 9 10 7 -3 14 -7 14 -8z
m620 -159 c0 -3 -4 -8 -10 -11 -5 -3 -10 -1 -10 4 0 6 5 11 10 11 6 0 10 -2
10 -4z m-1065 -23 c-2 -10 -4 -20 -4 -22 -1 -3 -7 1 -13 7 -10 10 -10 15 2 22
19 12 19 13 15 -7z m-44 -76 c-8 -8 -11 -7 -11 4 0 20 13 34 18 19 3 -7 -1
-17 -7 -23z"/>
<path d="M1406 4371 c-4 -5 3 -7 14 -4 23 6 26 13 6 13 -8 0 -17 -4 -20 -9z"/>
<path d="M1410 4340 c-9 -6 -10 -10 -3 -10 6 0 15 5 18 10 8 12 4 12 -15 0z"/>
<path d="M1319 4273 c-13 -16 -12 -17 4 -4 9 7 17 15 17 17 0 8 -8 3 -21 -13z"/>
<path d="M946 4239 c-8 -42 0 -50 9 -9 4 17 5 34 2 36 -2 3 -7 -10 -11 -27z"/>
<path d="M937 4179 c7 -7 15 -10 18 -7 3 3 -2 9 -12 12 -14 6 -15 5 -6 -5z"/>
<path d="M2435 4170 c3 -5 8 -10 11 -10 2 0 4 5 4 10 0 6 -5 10 -11 10 -5 0
-7 -4 -4 -10z"/>
<path d="M1098 4158 c-8 -20 20 -34 36 -18 8 8 6 9 -6 5 -11 -4 -17 -1 -20 12
-3 16 -4 16 -10 1z"/>
<path d="M2395 4149 c-172 -16 -479 -53 -615 -74 -58 -8 -188 -27 -290 -40
-156 -21 -386 -59 -480 -79 -82 -18 -129 -31 -160 -45 -34 -15 -35 -15 -9 -19
15 -2 52 6 84 17 32 11 61 19 64 16 4 -2 42 3 86 11 230 40 494 80 634 94 52
6 133 19 180 30 100 23 567 78 619 73 10 -1 10 2 1 13 -6 8 -14 13 -18 13 -3
-1 -46 -6 -96 -10z"/>
<path d="M2525 4120 c-4 -6 -3 -9 2 -8 8 2 48 -17 67 -34 48 -39 64 -51 106
-78 44 -28 49 -35 69 -108 13 -42 31 -104 41 -137 10 -33 23 -85 30 -115 26
-132 88 -368 137 -530 68 -225 160 -557 177 -640 13 -60 12 -68 -6 -107 -11
-23 -17 -46 -14 -52 3 -5 3 -11 -2 -13 -10 -4 -61 -208 -52 -208 4 0 26 66 49
148 23 81 51 174 63 207 11 33 27 89 35 125 8 36 23 94 33 130 26 90 31 120
37 239 3 64 9 98 14 90 5 -8 9 -32 10 -54 1 -24 3 -31 6 -17 3 12 -3 71 -11
131 -18 119 -68 271 -137 411 -22 47 -45 94 -49 105 -17 44 -101 144 -181 216
-117 105 -243 206 -268 214 -12 3 -18 11 -15 17 4 6 2 8 -3 5 -6 -4 -35 11
-64 33 -57 43 -64 46 -74 30z m782 -1052 c-3 -8 -6 -5 -6 6 -1 11 2 17 5 13 3
-3 4 -12 1 -19z"/>
<path d="M2455 3913 c-333 -42 -519 -70 -475 -72 13 0 67 6 120 14 174 28 401
53 422 47 14 -3 19 -1 14 6 -7 12 -22 13 -81 5z"/>
<path d="M2540 3871 c0 -6 4 -13 10 -16 6 -3 7 1 4 9 -7 18 -14 21 -14 7z"/>
<path d="M1893 3833 c9 -2 25 -2 35 0 9 3 1 5 -18 5 -19 0 -27 -2 -17 -5z"/>
<path d="M3359 3827 c12 -15 11 -17 -5 -17 -16 -1 -15 -3 6 -15 30 -17 50 -19
50 -5 0 6 -10 10 -22 10 -15 0 -19 3 -11 8 9 5 6 12 -10 21 -20 13 -21 13 -8
-2z"/>
<path d="M1730 3819 c-22 -4 -4 -5 45 -2 44 3 82 7 84 9 8 7 -93 2 -129 -7z"/>
<path d="M3711 3814 c0 -11 3 -14 6 -6 3 7 2 16 -1 19 -3 4 -6 -2 -5 -13z"/>
<path d="M1653 3803 c9 -2 23 -2 30 0 6 3 -1 5 -18 5 -16 0 -22 -2 -12 -5z"/>
<path d="M1450 3784 c-47 -7 -138 -21 -203 -30 -65 -9 -116 -18 -113 -21 4 -4
444 51 486 61 41 10 -96 2 -170 -10z"/>
<path d="M1057 3723 c-28 -7 -18 -64 37 -218 25 -71 67 -191 92 -265 25 -74
54 -154 65 -177 10 -24 19 -45 19 -48 0 -4 41 -109 91 -236 104 -261 79 -237
229 -219 47 6 155 17 240 25 290 27 887 113 978 140 64 19 65 26 22 181 -41
146 -41 146 -46 141 -3 -3 6 -45 20 -93 31 -107 46 -183 37 -188 -17 -11 -264
-57 -401 -76 -276 -37 -521 -68 -707 -90 -100 -11 -195 -23 -211 -26 -45 -9
-44 -11 -178 346 -36 96 -74 195 -84 220 -69 169 -180 504 -180 544 0 12 5 27
12 34 13 13 2 14 -35 5z"/>
<path d="M2263 3358 c-29 -38 -15 -105 26 -128 40 -21 84 22 74 72 -10 54 -74
89 -100 56z"/>
<path d="M2711 3274 c0 -11 3 -14 6 -6 3 7 2 16 -1 19 -3 4 -6 -2 -5 -13z"/>
<path d="M1482 3248 c-20 -20 -15 -85 8 -108 22 -22 60 -26 78 -8 19 19 14 73
-9 102 -22 27 -57 34 -77 14z"/>
<path d="M2725 3225 c9 -50 50 -170 52 -154 2 7 -11 52 -27 99 -17 47 -28 72
-25 55z"/>
<path d="M2025 3128 c-69 -26 -99 -31 -219 -37 -127 -6 -140 -9 -157 -29 -18
-24 -15 -48 19 -132 18 -46 91 -129 137 -156 153 -89 428 19 485 191 22 66
-25 158 -93 184 -44 17 -85 12 -172 -21z m164 11 c17 -6 31 -15 31 -19 0 -10
-87 -64 -135 -84 -100 -42 -266 -57 -332 -31 -36 14 -71 51 -59 62 3 3 54 7
113 8 92 3 123 8 213 38 120 40 126 41 169 26z m66 -53 c60 -92 -3 -219 -144
-290 -85 -44 -214 -52 -278 -18 -24 13 -24 34 4 105 24 62 51 97 76 97 71 1
280 84 302 120 10 16 24 11 40 -14z"/>
<path d="M843 2927 c10 -68 36 -137 63 -162 13 -12 21 -25 18 -28 -9 -8 16
-48 26 -42 9 6 50 -42 50 -59 0 -6 -9 4 -21 23 -11 18 -22 31 -25 28 -6 -5 20
-45 64 -100 12 -16 22 -24 22 -18 0 6 -9 20 -20 31 -21 21 -25 30 -12 30 5 0
20 -18 35 -40 14 -23 22 -38 17 -35 -28 18 0 -16 92 -108 55 -56 96 -93 90
-82 -6 11 -31 39 -55 62 -24 24 -50 55 -58 70 -12 25 -59 91 -84 119 -5 6 -21
26 -35 44 -38 52 -84 104 -97 113 -7 4 -13 13 -13 18 0 6 -6 17 -14 24 -8 8
-19 46 -26 85 -13 76 -27 98 -17 27z m253 -392 c17 -16 14 -18 -10 -9 -9 3
-16 10 -16 15 0 13 9 11 26 -6z"/>
<path d="M3312 2905 c0 -16 2 -22 5 -12 2 9 2 23 0 30 -3 6 -5 -1 -5 -18z"/>
<path d="M3545 2845 c-51 -27 -65 -50 -15 -25 37 19 55 22 115 17 77 -6 60 8
-22 18 -34 4 -57 1 -78 -10z"/>
<path d="M3640 2792 c0 -4 12 -8 28 -9 23 -1 24 -1 7 7 -26 11 -35 12 -35 2z"/>
<path d="M3553 2739 c-35 -28 -63 -55 -63 -61 0 -9 114 84 126 103 9 15 1 10
-63 -42z"/>
<path d="M3720 2761 c8 -5 37 -15 65 -21 52 -12 64 -16 128 -44 44 -19 50 -20
41 -5 -9 16 -64 37 -137 53 -34 8 -73 17 -87 21 -19 5 -21 4 -10 -4z"/>
<path d="M3443 2707 c-33 -35 -41 -53 -46 -97 -4 -30 -5 -56 -2 -58 2 -2 7 19
11 48 5 35 15 60 30 76 13 12 24 28 24 34 0 5 4 10 9 10 5 0 11 7 15 15 8 23
2 18 -41 -28z"/>
<path d="M2618 2565 c-32 -18 -42 -44 -29 -78 11 -28 47 -57 72 -57 23 0 69
46 69 69 0 24 -38 67 -65 75 -11 3 -32 -1 -47 -9z"/>
<path d="M3347 2463 c-39 -84 -59 -173 -38 -173 7 0 11 -8 10 -17 -4 -42 2
-93 10 -93 9 0 8 23 -4 152 -3 37 3 59 31 119 19 39 33 76 31 82 -1 5 -19 -26
-40 -70z"/>
<path d="M1925 2470 c-88 -10 -213 -24 -277 -30 -129 -13 -130 -14 -104 -75
l12 -30 80 3 c43 2 122 9 174 17 52 7 147 19 210 25 154 15 153 15 144 53 -13
65 -4 64 -239 37z"/>
<path d="M1110 2406 c13 -18 13 -19 0 -14 -45 16 -60 19 -60 9 0 -6 5 -11 11
-11 5 0 7 -5 3 -12 -4 -7 -3 -8 4 -4 13 8 55 -11 48 -23 -3 -4 4 -13 16 -20
11 -7 17 -8 13 -2 -3 6 -3 11 2 11 11 -1 49 -30 38 -30 -4 0 0 -9 10 -20 10
-11 23 -20 29 -20 7 0 20 -14 31 -32 20 -34 34 -24 15 11 -6 12 -7 21 -2 21
19 0 36 -33 42 -79 l6 -46 5 39 c6 48 -6 64 -109 147 -42 35 -70 54 -62 44 14
-17 14 -18 -8 -6 -12 7 -20 16 -17 20 2 5 -3 15 -13 22 -16 13 -16 13 -2 -5z"/>
<path d="M3798 2393 c18 -2 45 -2 60 0 15 2 0 4 -33 4 -33 0 -45 -2 -27 -4z"/>
<path d="M3685 2380 c-3 -6 1 -7 9 -4 18 7 21 14 7 14 -6 0 -13 -4 -16 -10z"/>
<path d="M3650 2360 c-9 -6 -10 -10 -3 -10 6 0 15 5 18 10 8 12 4 12 -15 0z"/>
<path d="M1075 2253 c-17 -57 -30 -139 -20 -116 9 18 44 167 40 171 -2 2 -11
-23 -20 -55z"/>
<path d="M2947 2268 c27 -6 47 -17 54 -30 15 -28 4 -106 -19 -131 -16 -19 -16
-20 3 -9 11 5 29 19 39 31 42 47 -18 152 -86 150 -32 -1 -32 -1 9 -11z"/>
<path d="M2414 2259 c-5 -9 1 -10 20 -5 23 6 27 4 24 -12 -1 -10 13 -38 33
-62 20 -25 44 -60 53 -78 14 -27 21 -32 39 -26 33 10 33 10 -8 61 -93 117
-141 153 -161 122z"/>
<path d="M2836 2205 c-3 -9 -6 -26 -5 -38 1 -14 4 -9 9 13 9 37 7 52 -4 25z"/>
<path d="M4489 2199 c8 -11 19 -19 24 -19 5 0 4 6 -2 14 -10 11 -8 15 6 19 10
2 4 4 -13 4 -29 0 -30 -1 -15 -18z"/>
<path d="M856 2193 c-6 -14 -5 -15 5 -6 7 7 10 15 7 18 -3 3 -9 -2 -12 -12z"/>
<path d="M846 2157 c3 -10 9 -15 12 -12 3 3 0 11 -7 18 -10 9 -11 8 -5 -6z"/>
<path d="M3334 2156 c-7 -19 12 -83 39 -131 l23 -40 82 0 82 0 0 -57 c0 -43 4
-58 14 -58 7 0 19 -7 27 -16 7 -9 53 -35 102 -59 48 -24 83 -37 76 -29 -7 9
-29 24 -50 35 -51 25 -123 75 -140 95 -8 10 -13 40 -13 83 1 36 -1 56 -3 44
-4 -20 -11 -23 -47 -23 -24 0 -57 -3 -75 -6 -30 -6 -31 -5 -71 76 -21 46 -37
87 -34 91 3 5 3 9 -1 9 -3 0 -8 -6 -11 -14z"/>
<path d="M1910 2151 c0 -6 4 -13 10 -16 6 -3 7 1 4 9 -7 18 -14 21 -14 7z"/>
<path d="M4520 2155 c0 -5 5 -17 10 -25 5 -8 10 -10 10 -5 0 6 -5 17 -10 25
-5 8 -10 11 -10 5z"/>
<path d="M826 2135 c-3 -9 -5 -42 -5 -73 l2 -57 6 45 c4 25 10 51 14 57 5 7 4
20 -1 29 -8 15 -10 15 -16 -1z"/>
<path d="M1241 2065 c-37 -220 -46 -284 -25 -195 35 155 46 217 42 245 -2 21
-7 5 -17 -50z"/>
<path d="M1303 2090 c0 -30 2 -43 4 -27 2 15 2 39 0 55 -2 15 -4 2 -4 -28z"/>
<path d="M1930 2120 c-12 -7 -10 -9 7 -7 12 0 19 5 17 9 -6 10 -6 10 -24 -2z"/>
<path d="M2913 2083 c9 -2 25 -2 35 0 9 3 1 5 -18 5 -19 0 -27 -2 -17 -5z"/>
<path d="M3071 2064 c0 -11 3 -14 6 -6 3 7 2 16 -1 19 -3 4 -6 -2 -5 -13z"/>
<path d="M2488 2033 c7 -3 16 -2 19 1 4 3 -2 6 -13 5 -11 0 -14 -3 -6 -6z"/>
<path d="M4554 2025 c4 -24 16 -30 16 -7 0 12 -4 22 -9 22 -5 0 -8 -7 -7 -15z"/>
<path d="M2408 2023 c12 -2 30 -2 40 0 9 3 -1 5 -23 4 -22 0 -30 -2 -17 -4z"/>
<path d="M3270 1975 c-7 -9 -10 -18 -7 -21 3 -3 10 4 17 15 13 25 8 27 -10 6z"/>
<path d="M3170 1972 c0 -12 50 -42 70 -42 5 0 10 5 10 10 0 6 -10 10 -22 10
-12 0 -30 7 -40 17 -10 9 -18 11 -18 5z"/>
<path d="M771 1953 c0 -4 4 -17 9 -28 8 -19 9 -19 9 2 1 12 -3 25 -9 28 -5 3
-10 3 -9 -2z"/>
<path d="M2578 1948 c-35 -15 -37 -31 -2 -18 32 13 134 13 134 1 0 -5 9 -7 20
-4 11 3 20 0 20 -6 0 -10 -102 -7 -139 5 -7 2 -28 -5 -47 -17 -22 -13 -34 -16
-34 -8 0 8 -7 6 -20 -6 -49 -45 -46 -162 5 -223 79 -91 243 -80 308 22 49 78
31 168 -46 230 -33 26 -47 31 -105 33 -37 1 -79 -3 -94 -9z"/>
<path d="M1971 1933 c0 -4 4 -17 9 -28 8 -19 9 -19 9 2 1 12 -3 25 -9 28 -5 3
-10 3 -9 -2z"/>
<path d="M1760 1926 c0 -2 7 -9 15 -16 13 -11 14 -10 9 4 -5 14 -24 23 -24 12z"/>
<path d="M3012 1865 c-21 -76 -22 -100 -2 -40 11 33 18 65 16 70 -2 6 -8 -8
-14 -30z"/>
<path d="M1791 1864 c0 -11 3 -14 6 -6 3 7 2 16 -1 19 -3 4 -6 -2 -5 -13z"/>
<path d="M1979 1860 c-25 -26 -32 -40 -17 -35 13 5 42 45 36 49 -2 2 -10 -5
-19 -14z"/>
<path d="M800 1855 c0 -11 5 -27 10 -35 8 -12 10 -12 10 5 0 11 -5 27 -10 35
-8 12 -10 12 -10 -5z"/>
<path d="M1800 1835 c0 -5 5 -17 10 -25 5 -8 10 -10 10 -5 0 6 -5 17 -10 25
-5 8 -10 11 -10 5z"/>
<path d="M4644 1820 c0 -13 4 -16 10 -10 7 7 7 13 0 20 -6 6 -10 3 -10 -10z"/>
<path d="M846 1747 c3 -10 9 -15 12 -12 3 3 0 11 -7 18 -10 9 -11 8 -5 -6z"/>
<path d="M2966 1670 c-10 -52 -20 -106 -22 -120 l-4 -25 10 25 c17 37 42 166
38 192 -2 13 -11 -20 -22 -72z"/>
<path d="M3125 1710 c21 -23 43 -25 80 -8 38 17 30 29 -8 13 -29 -12 -38 -12
-62 1 -29 15 -29 15 -10 -6z"/>
<path d="M4091 1720 c0 -8 4 -22 9 -30 12 -18 12 -2 0 25 -6 13 -9 15 -9 5z"/>
<path d="M4420 1665 c-7 -8 -8 -15 -2 -15 5 0 15 7 22 15 7 8 8 15 2 15 -5 0
-15 -7 -22 -15z"/>
<path d="M2035 1659 c-82 -10 -106 -27 -66 -49 44 -23 175 -2 169 27 -4 22
-42 30 -103 22z"/>
<path d="M1245 1630 c-3 -5 -1 -10 4 -10 6 0 11 5 11 10 0 6 -2 10 -4 10 -3 0
-8 -4 -11 -10z"/>
<path d="M1762 1630 c-41 -10 -57 -24 -49 -44 5 -12 20 -16 59 -15 73 0 123
19 123 44 0 17 -7 20 -50 22 -27 1 -65 -2 -83 -7z"/>
<path d="M4330 1620 c-8 -5 -26 -6 -39 -3 -17 4 -22 2 -17 -6 10 -15 47 -13
70 4 22 16 10 20 -14 5z"/>
<path d="M1412 1553 c-12 -13 -22 -19 -22 -12 0 7 -2 10 -5 7 -7 -6 5 -38 14
-38 7 0 43 61 39 66 -2 1 -13 -9 -26 -23z"/>
<path d="M3155 1464 c-16 -13 -25 -24 -20 -24 14 1 61 38 55 43 -3 3 -18 -6
-35 -19z"/>
<path d="M3926 1475 c-11 -8 -15 -15 -9 -15 6 0 16 7 23 15 16 19 11 19 -14 0z"/>
<path d="M3060 1457 c8 -8 26 -18 40 -22 32 -9 15 7 -25 24 -26 11 -28 11 -15
-2z"/>
<path d="M1270 1426 c0 -2 8 -10 18 -17 15 -13 16 -12 3 4 -13 16 -21 21 -21
13z"/>
<path d="M2998 1353 c6 -2 18 -2 25 0 6 3 1 5 -13 5 -14 0 -19 -2 -12 -5z"/>
<path d="M3118 1353 c6 -2 18 -2 25 0 6 3 1 5 -13 5 -14 0 -19 -2 -12 -5z"/>
<path d="M4359 4836 c-9 -9 3 -76 12 -70 6 3 7 14 4 25 -5 14 0 22 17 28 13 6
18 10 11 10 -6 1 -18 3 -25 6 -8 3 -16 3 -19 1z"/>
<path d="M4363 4733 c-3 -10 -8 -22 -11 -27 -3 -5 1 -7 8 -4 7 2 15 14 17 26
4 26 -5 29 -14 5z"/>
<path d="M4390 4726 c0 -8 4 -17 9 -20 5 -4 7 3 4 14 -6 23 -13 26 -13 6z"/>
<path d="M4415 4690 c-15 -5 -9 -7 21 -6 23 0 40 4 37 9 -5 9 -32 8 -58 -3z"/>
<path d="M4408 4643 c7 -3 16 -2 19 1 4 3 -2 6 -13 5 -11 0 -14 -3 -6 -6z"/>
<path d="M654 3759 c-8 -14 11 -33 25 -25 11 7 4 36 -9 36 -5 0 -12 -5 -16
-11z"/>
<path d="M424 2149 c-3 -6 -1 -16 5 -22 9 -9 10 -7 5 7 -6 15 -4 17 6 11 9 -5
11 -4 6 3 -9 15 -13 15 -22 1z"/>
<path d="M606 2147 c3 -10 9 -15 12 -12 3 3 0 11 -7 18 -10 9 -11 8 -5 -6z"/>
<path d="M460 2121 c0 -6 4 -13 10 -16 6 -3 7 1 4 9 -7 18 -14 21 -14 7z"/>
<path d="M2383 1078 c-4 -7 -8 -16 -9 -20 -1 -5 -2 -11 -3 -15 -1 -5 -6 -1
-12 7 -9 12 -10 12 -5 -4 4 -11 1 -23 -5 -27 -8 -4 -1 -13 19 -23 40 -21 38
-21 55 13 13 27 13 31 -2 44 -9 8 -23 12 -31 9 -13 -4 -13 -3 -1 11 7 10 11
17 8 17 -3 0 -9 -6 -14 -12z"/>
<path d="M3251 993 l-20 -18 24 -18 c22 -16 25 -16 25 -2 0 9 -4 13 -10 10 -5
-3 -10 -2 -10 4 0 5 8 9 18 8 13 -1 18 -8 16 -24 -3 -31 14 -29 22 2 13 52
-22 73 -65 38z"/>
<path d="M1803 897 c3 -8 1 -20 -4 -28 -7 -12 -9 -11 -9 2 0 24 -48 21 -65 -4
-8 -12 -15 -28 -15 -37 -1 -32 -27 -50 -73 -52 -26 -1 -43 -5 -39 -8 4 -3 -11
-23 -32 -45 -23 -23 -34 -30 -27 -17 11 21 10 22 -28 22 -25 0 -60 11 -93 29
-42 23 -57 26 -70 18 -12 -8 -21 -8 -28 -1 -8 8 -4 10 11 10 33 -1 33 17 -1
43 -25 18 -34 20 -46 10 -12 -10 -11 -18 12 -58 34 -58 39 -61 97 -61 53 0 73
-8 114 -46 48 -44 60 -47 66 -15 3 15 19 43 34 62 18 22 21 29 8 19 -11 -7
-26 -21 -32 -29 -8 -8 -13 -10 -13 -4 0 15 55 55 63 46 4 -3 13 -1 21 6 8 6
18 11 22 10 5 -1 11 -1 14 0 18 7 102 9 86 2 -16 -6 -11 -10 26 -19 25 -6 51
-18 58 -27 7 -8 17 -15 23 -15 15 0 -24 40 -56 57 -19 9 -26 20 -23 31 14 49
18 112 6 112 -7 0 -10 -6 -7 -13z m-483 -77 c0 -5 -2 -10 -4 -10 -3 0 -8 5
-11 10 -3 6 -1 10 4 10 6 0 11 -4 11 -10z m40 -76 c0 -8 -19 -13 -24 -6 -3 5
1 9 9 9 8 0 15 -2 15 -3z m174 -73 c-2 -3 -12 3 -22 13 -16 17 -16 18 5 5 12
-7 20 -15 17 -18z"/>
<path d="M1070 845 c0 -9 12 -27 28 -40 27 -23 27 -24 7 -39 -20 -15 -20 -15
3 -9 13 3 22 1 22 -6 0 -7 -5 -9 -12 -5 -9 5 -8 2 1 -10 9 -10 17 -13 20 -7 4
6 12 1 20 -11 11 -18 11 -20 -3 -15 -8 3 -18 2 -21 -3 -4 -6 5 -10 19 -10 18
0 24 -4 20 -15 -4 -8 -10 -13 -14 -10 -5 3 -11 1 -14 -4 -12 -18 14 -22 39 -5
13 9 55 24 92 34 49 13 60 18 37 19 -24 1 -40 13 -78 56 -26 30 -54 55 -62 55
-8 0 -14 4 -14 8 0 8 -65 32 -84 32 -3 0 -6 -7 -6 -15z m55 -15 c4 -6 12 -7
18 -3 7 4 6 0 -2 -10 -7 -9 -19 -17 -25 -17 -6 0 -5 4 3 9 11 7 10 11 -5 20
-11 6 -14 11 -7 11 6 0 15 -5 18 -10z m59 -32 c-2 -3 -13 -6 -24 -5 -24 2 -18
13 9 13 11 0 18 -4 15 -8z m37 -35 c13 -16 12 -17 -3 -4 -10 7 -18 15 -18 17
0 8 8 3 21 -13z"/>
<path d="M2601 834 c0 -11 3 -14 6 -6 3 7 2 16 -1 19 -3 4 -6 -2 -5 -13z"/>
<path d="M3082 688 c-1 -23 2 -28 8 -18 12 19 13 50 2 50 -5 0 -9 -14 -10 -32z"/>
<path d="M3006 680 c12 -14 20 -35 18 -47 -5 -30 18 -35 39 -7 20 27 16 32 -7
8 -15 -14 -16 -14 -16 4 0 10 -12 29 -27 43 l-28 24 21 -25z"/>
<path d="M1910 683 c0 -7 4 -13 9 -13 9 0 96 -97 149 -165 l23 -30 -18 34
c-22 42 -162 191 -163 174z"/>
<path d="M2316 660 c-28 -11 -56 -26 -64 -33 -11 -12 -2 -14 65 -14 68 1 73 2
38 9 -22 5 -51 6 -65 3 -56 -14 -1 14 65 33 48 14 61 21 40 21 -16 0 -52 -9
-79 -19z"/>
<path d="M2430 590 c8 -5 20 -10 25 -10 6 0 3 5 -5 10 -8 5 -19 10 -25 10 -5
0 -3 -5 5 -10z"/>
<path d="M2484 567 c134 -87 167 -107 172 -107 4 0 -4 8 -17 19 -34 26 -158
101 -167 100 -4 0 1 -6 12 -12z"/>
<path d="M2230 554 c0 -10 5 -26 10 -34 8 -11 9 -7 4 15 -8 37 -14 45 -14 19z"/>
<path d="M2260 473 c0 -5 12 -20 28 -34 l27 -24 -25 30 c-14 17 -26 32 -27 34
-2 2 -3 0 -3 -6z"/>
<path d="M1750 426 c0 -2 8 -10 18 -17 15 -13 16 -12 3 4 -13 16 -21 21 -21
13z"/>
<path d="M1953 409 c-18 -5 -33 -12 -33 -15 0 -9 53 5 65 17 10 10 11 10 -32
-2z"/>
<path d="M1965 320 c-16 -7 -17 -9 -3 -9 9 -1 20 4 23 9 7 11 7 11 -20 0z"/>
<path d="M1887 313 c-10 -9 -9 -23 1 -23 5 0 9 7 9 15 0 17 -1 18 -10 8z"/>
<path d="M3885 749 c-16 -10 -26 -19 -22 -19 11 0 67 29 67 35 0 9 -15 4 -45
-16z"/>
<path d="M3716 575 c-11 -8 -15 -15 -9 -15 6 0 16 7 23 15 16 19 11 19 -14 0z"/>
<path d="M3115 70 l-30 -8 30 -1 c17 0 37 4 45 9 13 9 13 10 0 9 -8 -1 -28 -5
-45 -9z"/>
<path d="M4296 5029 c4 -8 -1 -9 -17 -4 -24 8 -24 8 -5 -14 15 -16 21 -18 28
-9 11 18 10 38 -3 38 -5 0 -7 -5 -3 -11z"/>
<path d="M3642 269 c15 -6 30 -19 33 -30 5 -14 15 -19 43 -18 33 1 34 2 12 9
-23 7 -23 8 -3 9 12 1 24 -3 28 -8 3 -6 25 -13 50 -17 46 -6 88 -37 99 -71 9
-28 -29 -43 -143 -54 -52 -6 -102 -14 -110 -19 -13 -8 -13 -9 -2 -10 22 0 50
-30 44 -46 -4 -11 43 -13 284 -13 238 0 285 2 271 13 -10 7 -15 15 -12 18 5 6
-74 28 -103 28 -10 1 -35 9 -56 18 l-37 18 26 21 c15 12 28 34 30 51 3 27 1
29 -24 25 -24 -3 -25 -2 -7 7 16 8 13 9 -14 4 -21 -4 -31 -2 -27 4 3 6 -10 12
-32 16 -20 3 -70 11 -110 18 -57 9 -78 9 -92 0 -16 -9 -18 -9 -14 2 4 10 -7
15 -38 19 -24 4 -61 9 -83 11 -36 5 -37 5 -13 -5z m263 -79 c3 -6 -1 -7 -9 -4
-18 7 -21 14 -7 14 6 0 13 -4 16 -10z"/>
<path d="M4110 180 c0 -5 5 -10 11 -10 5 0 7 5 4 10 -3 6 -8 10 -11 10 -2 0
-4 -4 -4 -10z"/>
<path d="M3725 170 c3 -5 8 -10 11 -10 2 0 4 5 4 10 0 6 -5 10 -11 10 -5 0 -7
-4 -4 -10z"/>
<path d="M1760 26 c0 -2 7 -7 16 -10 8 -3 12 -2 9 4 -6 10 -25 14 -25 6z"/>
<path d="M1740 10 c0 -5 5 -10 11 -10 5 0 7 5 4 10 -3 6 -8 10 -11 10 -2 0 -4
-4 -4 -10z"/>
</g>
</svg>
